<svg id="visual" viewBox="0 0 900 600" width="900" height="600" xmlns="http://www.w3.org/2000/svg" xmlns:xlink="http://www.w3.org/1999/xlink" version="1.1"><rect x="0" y="0" width="900" height="600" fill="#FFFFFF"></rect><path d="M0 486L13.7 489.8C27.3 493.7 54.7 501.3 82 506.2C109.3 511 136.7 513 163.8 508C191 503 218 491 245.2 488C272.3 485 299.7 491 327 501.5C354.3 512 381.7 527 409 530C436.3 533 463.7 524 491 519.2C518.3 514.3 545.7 513.7 573 517.3C600.3 521 627.7 529 654.8 532.5C682 536 709 535 736.2 531.3C763.3 527.7 790.7 521.3 818 513.5C845.3 505.7 872.7 496.3 886.3 491.7L900 487L900 601L886.3 601C872.7 601 845.3 601 818 601C790.7 601 763.3 601 736.2 601C709 601 682 601 654.8 601C627.7 601 600.3 601 573 601C545.7 601 518.3 601 491 601C463.7 601 436.3 601 409 601C381.7 601 354.3 601 327 601C299.7 601 272.3 601 245.2 601C218 601 191 601 163.8 601C136.7 601 109.3 601 82 601C54.7 601 27.3 601 13.7 601L0 601Z" fill="#6600FF" stroke-linecap="round" stroke-linejoin="miter"></path></svg>